<svg xmlns="http://www.w3.org/2000/svg" version="1.1" xmlns:xlink="http://www.w3.org/1999/xlink" xmlns:svgjs="http://svgjs.dev/svgjs" width="2000" height="1500" viewBox="0 0 2000 1500"><rect width="2000" height="1500" fill="#3e373d"></rect><g transform="matrix(0.75,0,0,0.75,250.60728744939274,0.6076651122377257)"><svg viewBox="0 0 247 247" data-background-color="#3e373d" preserveAspectRatio="xMidYMid meet" height="2000" width="2000" xmlns="http://www.w3.org/2000/svg" xmlns:xlink="http://www.w3.org/1999/xlink"><g id="tight-bounds" transform="matrix(1,0,0,1,-0.09999999999999432,-0.10006218848181447)"><svg viewBox="0 0 247.2 247.2" height="247.2" width="247.2"><g><svg viewBox="0 0 247.2 247.2" height="247.2" width="247.2"><g><svg viewBox="0 0 247.2 247.2" height="247.2" width="247.2"><g><svg viewBox="0 0 247.2 247.2" height="247.2" width="247.2"><g id="textblocktransform"><svg viewBox="0 0 247.2 247.2" height="247.2" width="247.2" id="textblock"><g><svg viewBox="0 0 247.2 247.2" height="247.2" width="247.2"><g transform="matrix(1,0,0,1,65.33440123022848,92.64720258910327)"><svg viewBox="0 0 116.53119753954303 61.90559482179344" height="61.90559482179344" width="116.53119753954303"><g id="icon-0"><svg xmlns="http://www.w3.org/2000/svg" xmlns:xlink="http://www.w3.org/1999/xlink" version="1.1" x="0" y="0" viewBox="33.99987292178789 42 32.00012707821211 16.999627078212107" enable-background="new 0 0 100 100" xml:space="preserve" height="61.90559482179344" width="116.53119753954303" class="icon-jxe-0" data-fill-palette-color="accent" id="jxe-0"><path d="M66 43.5V49.5A1.5 1.5 0 1 1 63 49.5V47.121L57.561 52.56A1.5 1.5 0 0 1 55.44 52.56L53 50.121 47.061 56.06A1.5 1.5 0 0 1 44.94 56.06L42 53.121 36.561 58.56A1.5 1.5 0 0 1 34.439 56.439L40.939 49.939A1.5 1.5 0 0 1 43.06 49.939L46 52.879 51.939 46.94A1.5 1.5 0 0 1 54.06 46.94L56.498 49.379 60.879 45H58.5A1.5 1.5 0 1 1 58.5 42H64.5A1.5 1.5 0 0 1 66 43.5" fill="#c9a181" data-fill-palette-color="accent"></path></svg></g></svg></g><g id="text-0"><path d="M11.353 92.487v0c-0.235 0.801 0.107 1.335 1.024 1.604v0c0.613 0.18 1.289 0.22 2.026 0.12 0.735-0.093 1.329-0.182 1.781-0.267v0c1.755-0.32 3.043-0.36 3.863-0.119 0.814 0.238 1.432 0.686 1.857 1.343 0.431 0.659 0.565 1.469 0.403 2.431v0l-0.046 0.155c-0.265 0.904-1.008 1.394-2.229 1.471v0c-0.044 0.008-0.083 0.007-0.115-0.002v0l-0.116-0.034c-0.168-0.049-0.292-0.141-0.371-0.277-0.073-0.134-0.105-0.265-0.095-0.396v0l0.037-0.125c0.047-0.161 0.15-0.272 0.307-0.331 0.153-0.067 0.319-0.12 0.499-0.159 0.181-0.045 0.352-0.1 0.511-0.166 0.159-0.065 0.276-0.224 0.35-0.476v0c0.159-0.542 0.115-1.025-0.133-1.448-0.241-0.421-0.568-0.692-0.982-0.813-0.413-0.121-0.815-0.172-1.206-0.154v0c-0.672 0.02-1.537 0.139-2.596 0.355v0c-1.741 0.366-3.028 0.428-3.86 0.183-0.833-0.244-1.456-0.654-1.869-1.231-0.406-0.575-0.496-1.25-0.269-2.024v0c0.14-0.478 0.357-0.859 0.65-1.145v0c0.562-0.529 1.075-0.726 1.54-0.59 0.465 0.136 0.641 0.398 0.527 0.785v0c-0.042 0.142-0.127 0.243-0.257 0.304-0.138 0.065-0.287 0.13-0.446 0.195v0c-0.417 0.179-0.679 0.45-0.785 0.811z" fill="#ddd8c3" data-fill-palette-color="primary"></path><path d="M18.415 75.245v0c-0.313 0.633-0.546 1.197-0.7 1.691v0c-0.182 0.293-0.388 0.383-0.617 0.269v0c-0.133-0.066-0.243-0.191-0.331-0.377-0.085-0.177-0.094-0.365-0.025-0.564v0l0.858-1.625c-0.142-0.108-0.313-0.233-0.512-0.376-0.199-0.143-0.489-0.362-0.87-0.655-0.381-0.293-0.703-0.598-0.966-0.915-0.269-0.321-0.343-0.605-0.221-0.852 0.122-0.247 0.322-0.302 0.6-0.166v0l0.145 0.072c0.81 0.67 1.585 1.281 2.324 1.834v0l0.809-1.638c0.286-0.579 0.507-0.913 0.663-1.001 0.15-0.091 0.291-0.104 0.424-0.038v0c0.265 0.131 0.358 0.376 0.279 0.734v0c-0.035 0.193-0.173 0.533-0.415 1.022-0.244 0.495-0.533 1.02-0.867 1.575v0c0.671 0.511 1.905 1.514 3.702 3.01 1.795 1.486 2.988 2.375 3.579 2.667 0.591 0.292 1.013 0.418 1.265 0.378v0c0.168-0.037 0.309-0.17 0.423-0.4 0.113-0.229 0.141-0.46 0.082-0.691-0.049-0.234-0.12-0.457-0.211-0.667-0.097-0.213-0.181-0.416-0.251-0.608-0.067-0.198-0.062-0.376 0.015-0.532v0c0.149-0.302 0.374-0.378 0.676-0.229v0c0.157 0.077 0.34 0.359 0.55 0.846 0.21 0.486 0.348 0.907 0.413 1.261 0.065 0.355-0.026 0.782-0.274 1.283-0.244 0.495-0.497 0.794-0.758 0.898v0c-0.534 0.216-1.179 0.138-1.933-0.234v0c-0.386-0.191-0.819-0.461-1.299-0.811v0l-1.191-0.847c-0.568-0.46-1.063-0.863-1.487-1.206-0.426-0.353-0.801-0.658-1.124-0.915-0.32-0.263-0.74-0.606-1.259-1.027-0.52-0.422-1.018-0.81-1.496-1.166z" fill="#ddd8c3" data-fill-palette-color="primary"></path><path d="M29.891 54.678v0c0.932-1.261 2.353-1.185 4.262 0.227v0c1.482 1.096 2.774 2.687 3.876 4.772v0c0.739 1.4 1.072 2.675 0.999 3.826v0c-0.036 0.592-0.212 1.102-0.528 1.53v0c-0.556 0.752-1.256 1.071-2.101 0.957-0.84-0.119-1.607-0.435-2.299-0.947v0c-1.239-0.916-2.286-2.012-3.141-3.288-0.861-1.28-1.412-2.566-1.654-3.858-0.246-1.286-0.051-2.359 0.586-3.219zM31.222 59.803v0c0.907 1.783 2.048 3.183 3.422 4.199v0c0.952 0.704 1.785 0.913 2.497 0.629v0c0.223-0.086 0.41-0.232 0.562-0.438v0c0.316-0.427 0.297-1.177-0.056-2.25-0.353-1.073-0.937-2.19-1.751-3.353-0.818-1.157-1.614-2.021-2.387-2.593-0.779-0.576-1.303-0.897-1.573-0.962-0.274-0.06-0.495-0.06-0.664-0.001-0.165 0.054-0.348 0.216-0.548 0.486-0.2 0.271-0.31 0.645-0.329 1.124v0c-0.06 0.918 0.216 1.971 0.827 3.159z" fill="#ddd8c3" data-fill-palette-color="primary"></path><path d="M48.209 48.674v0c1.025 1.105 1.94 1.284 2.743 0.538v0c0.404-0.375 0.603-0.918 0.597-1.627v0c-0.009-0.276-0.011-0.531-0.008-0.765 0.004-0.224 0.067-0.393 0.191-0.507v0c0.242-0.224 0.461-0.23 0.657-0.018v0c0.357 0.385 0.472 1.008 0.345 1.869-0.127 0.862-0.506 1.585-1.138 2.171-0.626 0.581-1.317 0.791-2.073 0.63-0.76-0.166-1.41-0.54-1.95-1.122v0c-1.007-1.085-1.851-2.399-2.531-3.943-0.676-1.539-1.05-3.01-1.121-4.412-0.081-1.403 0.246-2.445 0.98-3.127v0c0.537-0.499 1.069-0.634 1.593-0.405v0c0.141 0.062 0.313 0.15 0.519 0.262 0.206 0.103 0.366 0.142 0.481 0.118v0c0.123 0.033 0.236 0.106 0.342 0.22 0.101 0.108 0.145 0.26 0.133 0.455-0.012 0.195-0.082 0.352-0.211 0.471v0c-0.261 0.243-0.607 0.206-1.038-0.111-0.431-0.325-0.814-0.333-1.149-0.021v0c-0.468 0.435-0.622 1.243-0.461 2.425 0.161 1.172 0.538 2.424 1.131 3.755 0.603 1.332 1.259 2.379 1.968 3.144z" fill="#ddd8c3" data-fill-palette-color="primary"></path><path d="M70.404 32.944v0c0.37-0.233 0.704-0.113 1.001 0.36v0c0.175 0.279 0.23 0.63 0.162 1.054v0c-0.134 0.823-0.446 1.389-0.935 1.697v0c-0.831 0.523-1.73 0.718-2.695 0.586-0.967-0.123-1.881-0.426-2.742-0.91-0.864-0.49-1.503-0.962-1.917-1.417v0l-0.03 0.066c0.178 0.397 0.47 1.202 0.877 2.418 0.404 1.224 0.653 1.954 0.745 2.189v0c0.155 0.411 0.099 0.701-0.169 0.869v0c-0.216 0.136-0.395 0.193-0.536 0.171-0.138-0.017-0.223-0.051-0.255-0.102v0l-0.054-0.085c-0.254-0.404-0.915-2.175-1.981-5.311-1.066-3.136-1.746-5.113-2.037-5.932v0c-1.365-3.966-2.44-6.894-3.225-8.785-0.79-1.888-1.196-2.932-1.218-3.131-0.023-0.2 0.014-0.331 0.111-0.392v0c0.467-0.294 0.849-0.204 1.146 0.268v0c0.107 0.171 0.328 0.704 0.661 1.6 0.333 0.895 0.645 1.74 0.937 2.533 0.295 0.784 0.753 2.038 1.376 3.761 0.619 1.717 1.033 2.855 1.242 3.415v0c0.196-0.99 0.582-1.665 1.157-2.027 0.575-0.362 1.096-0.411 1.564-0.149 0.458 0.26 0.828 0.616 1.111 1.066v0c0.534 0.849 0.705 1.778 0.514 2.788-0.197 1.014-0.67 2.265-1.419 3.753v0c0.88 0.957 1.927 1.617 3.142 1.982 1.217 0.355 2.204 0.295 2.962-0.181v0c0.347-0.218 0.504-0.544 0.471-0.976v0c-0.016-0.189-0.051-0.409-0.106-0.661-0.061-0.248-0.014-0.42 0.14-0.517zM62.409 26.98v0c-0.547 0.344-0.867 0.883-0.961 1.618-0.085 0.737 0.095 1.661 0.539 2.773v0c0.095 0.227 0.232 0.597 0.413 1.111v0l0.328 0.843c0.033-0.1 0.11-0.268 0.231-0.503 0.116-0.232 0.302-0.639 0.556-1.22 0.249-0.578 0.433-1.246 0.552-2.004 0.116-0.764-0.024-1.459-0.418-2.086-0.394-0.626-0.807-0.804-1.24-0.532z" fill="#ddd8c3" data-fill-palette-color="primary"></path><path d="M102.713 20.333v0c0.263 1.484 0.935 2.13 2.014 1.938v0c0.543-0.096 1.004-0.445 1.383-1.044v0c0.142-0.237 0.278-0.453 0.408-0.647 0.124-0.186 0.269-0.294 0.435-0.323v0c0.325-0.058 0.512 0.056 0.562 0.341v0c0.092 0.517-0.15 1.103-0.723 1.758-0.574 0.655-1.285 1.058-2.133 1.208-0.841 0.149-1.536-0.049-2.083-0.594-0.549-0.552-0.892-1.219-1.031-2v0c-0.258-1.457-0.255-3.019 0.009-4.685 0.266-1.66 0.749-3.098 1.449-4.316 0.692-1.223 1.531-1.922 2.518-2.096v0c0.722-0.128 1.242 0.046 1.559 0.523v0c0.084 0.129 0.182 0.296 0.294 0.501 0.117 0.198 0.231 0.318 0.34 0.36v0c0.085 0.094 0.141 0.218 0.168 0.37 0.026 0.146-0.019 0.297-0.134 0.454-0.116 0.157-0.26 0.251-0.432 0.282v0c-0.351 0.062-0.622-0.156-0.813-0.656-0.186-0.507-0.504-0.72-0.954-0.64v0c-0.629 0.112-1.197 0.708-1.702 1.788-0.5 1.073-0.861 2.329-1.085 3.769-0.215 1.446-0.232 2.682-0.049 3.709z" fill="#c9a181" data-fill-palette-color="accent"></path><path d="M121.702 21.548v0c-0.969-0.011-1.447-0.625-1.434-1.842 0.013-1.218 0.483-2.706 1.411-4.466 0.921-1.76 2.004-3.278 3.249-4.557 1.238-1.272 2.244-1.903 3.018-1.895 0.774 0.008 1.211 0.353 1.311 1.034v0c0.031 0.209 0.056 0.428 0.073 0.657v0c0.075-0.046 0.166-0.069 0.273-0.068v0c0.39 0.004 0.583 0.191 0.58 0.561v0l-0.001 0.101c0 0.027-0.109 0.399-0.325 1.117-0.216 0.718-0.465 1.916-0.746 3.595-0.287 1.679-0.437 3.117-0.45 4.314v0c0.073 0.048 0.16 0.103 0.26 0.165 0.1 0.062 0.224 0.157 0.371 0.286 0.147 0.136 0.219 0.288 0.217 0.457-0.002 0.175-0.057 0.332-0.167 0.472-0.109 0.133-0.261 0.199-0.456 0.197v0c-0.41-0.004-0.775-0.217-1.093-0.637-0.325-0.414-0.485-0.863-0.48-1.348v0c0.011-1.036 0.313-2.812 0.905-5.329v0c-0.722 1.466-1.649 2.875-2.78 4.229-1.132 1.354-1.914 2.186-2.349 2.498-0.427 0.312-0.89 0.465-1.387 0.459zM121.529 19.77v0c-0.003 0.303 0.123 0.455 0.379 0.458v0c0.188 0.002 0.344-0.057 0.466-0.177v0c1.731-1.455 3.291-3.48 4.678-6.075v0c0.79-1.485 1.206-2.338 1.249-2.56 0.05-0.221 0.075-0.413 0.077-0.574 0.002-0.155-0.037-0.303-0.117-0.446-0.086-0.142-0.203-0.214-0.351-0.215-0.148-0.002-0.367 0.073-0.658 0.225v0c-0.643 0.343-1.435 1.078-2.375 2.204-0.947 1.12-1.738 2.346-2.372 3.678-0.64 1.325-0.966 2.486-0.976 3.482z" fill="#c9a181" data-fill-palette-color="accent"></path><path d="M146.368 22.372v0c0.363 0.071 0.508 0.292 0.436 0.661-0.073 0.37-0.37 0.609-0.893 0.719-0.529 0.108-1.103 0.102-1.724-0.02-0.621-0.122-1.043-0.38-1.267-0.774-0.232-0.389-0.301-0.824-0.206-1.306 0.095-0.482 0.208-0.919 0.341-1.311 0.132-0.392 0.334-0.932 0.606-1.619 0.272-0.687 0.583-1.462 0.931-2.326 0.34-0.859 0.718-1.782 1.132-2.77 0.419-0.98 0.842-1.98 1.269-3.001 0.427-1.02 0.856-2.033 1.287-3.037 0.431-1.005 0.842-1.963 1.234-2.874 0.384-0.905 0.739-1.737 1.067-2.495 0.328-0.758 0.601-1.4 0.822-1.926v0c0.123-0.243 0.337-0.335 0.64-0.275v0c0.35 0.069 0.487 0.295 0.412 0.677v0l-0.063 0.317c-0.616 1.456-1.22 2.873-1.813 4.251-0.593 1.378-1.609 3.77-3.048 7.176-1.445 3.405-2.4 5.713-2.864 6.924-0.458 1.213-0.712 1.944-0.762 2.195-0.049 0.251-0.018 0.49 0.096 0.718 0.114 0.221 0.277 0.353 0.488 0.394 0.205 0.04 0.399 0.044 0.584 0.012 0.186-0.039 0.369-0.078 0.548-0.118 0.174-0.048 0.334-0.092 0.478-0.132 0.146-0.047 0.236-0.067 0.269-0.06z" fill="#c9a181" data-fill-palette-color="accent"></path><path d="M160.638 24.809v0c-0.538 1.408-0.295 2.307 0.729 2.699v0c0.515 0.197 1.09 0.136 1.723-0.184v0c0.244-0.13 0.472-0.245 0.683-0.344 0.202-0.096 0.382-0.113 0.539-0.053v0c0.308 0.118 0.41 0.312 0.307 0.582v0c-0.187 0.49-0.696 0.868-1.525 1.135-0.829 0.266-1.646 0.246-2.451-0.062-0.798-0.305-1.292-0.832-1.48-1.582-0.186-0.756-0.138-1.504 0.145-2.245v0c0.529-1.382 1.335-2.72 2.421-4.012 1.082-1.286 2.237-2.271 3.463-2.955 1.223-0.692 2.302-0.859 3.238-0.501v0c0.685 0.262 1.041 0.679 1.067 1.251v0c0.006 0.154 0.004 0.347-0.006 0.581-0.001 0.23 0.034 0.391 0.107 0.484v0c0.024 0.125 0.009 0.259-0.047 0.403-0.053 0.138-0.169 0.245-0.349 0.321-0.18 0.075-0.352 0.082-0.515 0.019v0c-0.333-0.127-0.453-0.454-0.36-0.981 0.102-0.53-0.061-0.877-0.488-1.04v0c-0.597-0.228-1.39-0.009-2.38 0.657-0.981 0.662-1.937 1.553-2.869 2.673-0.929 1.129-1.579 2.18-1.952 3.154z" fill="#c9a181" data-fill-palette-color="accent"></path><path d="M180.749 39.054v0c-0.436-0.267-0.3-0.98 0.409-2.14v0c0.456-0.746 0.999-1.467 1.629-2.162 0.624-0.699 1.242-1.374 1.853-2.025v0c-0.548 0.304-1.088 0.632-1.62 0.985-0.534 0.344-0.982 0.614-1.346 0.809-0.355 0.193-0.65 0.36-0.885 0.5v0c-1.976 1.182-3.354 1.534-4.135 1.057-0.781-0.477-0.697-1.491 0.25-3.041v0c1.214-1.986 2.907-4.046 5.078-6.18v0l1.127-1.109c0.427-0.402 0.801-0.504 1.123-0.308v0c0.184 0.112 0.232 0.311 0.144 0.597v0c-0.16 0.21-0.345 0.384-0.557 0.523-0.208 0.133-0.403 0.305-0.587 0.516v0c-2.541 2.752-4.163 4.702-4.864 5.85v0l-0.639 1.006c-0.354 0.58-0.437 0.928-0.247 1.043v0c0.551 0.337 2.281-0.392 5.191-2.185v0c0.449-0.27 1.007-0.615 1.673-1.035 0.663-0.415 1.175-0.729 1.535-0.943 0.365-0.21 0.703-0.422 1.014-0.634v0c1.304-0.882 2.16-1.199 2.567-0.95v0c0.247 0.151 0.286 0.364 0.118 0.64-0.165 0.27-0.576 0.633-1.234 1.091-0.654 0.452-1.269 0.947-1.843 1.487v0c-1.623 1.508-3.1 3.215-4.431 5.121v0l-0.069 0.112c-0.13 0.212-0.18 0.398-0.151 0.558 0.023 0.156 0.041 0.269 0.052 0.34 0.018 0.074-0.017 0.183-0.105 0.326-0.088 0.144-0.252 0.225-0.491 0.243-0.24 0.019-0.426-0.012-0.559-0.092z" fill="#c9a181" data-fill-palette-color="accent"></path><path d="M196.582 48.624v0c0.276 0.247 0.288 0.51 0.037 0.791-0.251 0.281-0.629 0.335-1.134 0.164-0.51-0.176-1.001-0.475-1.473-0.897-0.471-0.422-0.703-0.859-0.695-1.312-0.001-0.453 0.162-0.862 0.489-1.228 0.327-0.366 0.648-0.684 0.962-0.954 0.314-0.27 0.763-0.631 1.347-1.083 0.585-0.452 1.247-0.961 1.988-1.527 0.731-0.565 1.526-1.167 2.386-1.805 0.861-0.629 1.735-1.274 2.622-1.933 0.888-0.659 1.773-1.312 2.657-1.957 0.884-0.645 1.726-1.259 2.527-1.842 0.792-0.583 1.522-1.117 2.19-1.602 0.669-0.485 1.232-0.898 1.689-1.238v0c0.23-0.146 0.46-0.116 0.692 0.09v0c0.266 0.238 0.269 0.502 0.008 0.793v0l-0.215 0.241c-1.272 0.938-2.515 1.849-3.728 2.731-1.213 0.883-3.307 2.422-6.282 4.618-2.979 2.191-4.978 3.689-5.995 4.494-1.013 0.809-1.604 1.309-1.775 1.5-0.17 0.191-0.265 0.413-0.284 0.666-0.015 0.249 0.058 0.445 0.218 0.588 0.155 0.139 0.321 0.242 0.496 0.308 0.18 0.061 0.357 0.121 0.532 0.178 0.174 0.047 0.334 0.091 0.479 0.131 0.15 0.035 0.237 0.063 0.262 0.085z" fill="#c9a181" data-fill-palette-color="accent"></path><path d="M204.956 59.839v0c-0.595-0.764-0.413-1.521 0.548-2.268 0.961-0.748 2.418-1.308 4.372-1.679 1.95-0.376 3.813-0.475 5.588-0.297 1.766 0.176 2.887 0.57 3.363 1.18 0.475 0.61 0.478 1.167 0.008 1.67v0c-0.144 0.155-0.3 0.31-0.468 0.466v0c0.083 0.029 0.157 0.087 0.223 0.172v0c0.24 0.308 0.214 0.575-0.078 0.803v0l-0.08 0.062c-0.021 0.017-0.38 0.164-1.076 0.441-0.696 0.278-1.788 0.83-3.276 1.657-1.492 0.821-2.711 1.6-3.656 2.335v0c0.008 0.087 0.02 0.189 0.034 0.306 0.014 0.117 0.016 0.273 0.006 0.468-0.015 0.199-0.089 0.351-0.222 0.455-0.138 0.107-0.296 0.162-0.473 0.164-0.172-0.002-0.318-0.08-0.438-0.235v0c-0.252-0.324-0.313-0.741-0.183-1.252 0.121-0.512 0.373-0.917 0.755-1.215v0c0.817-0.637 2.395-1.507 4.733-2.611v0c-1.596 0.348-3.277 0.501-5.04 0.459-1.764-0.042-2.903-0.136-3.417-0.281-0.51-0.14-0.918-0.407-1.223-0.8zM206.239 58.597v0c-0.239 0.186-0.28 0.38-0.123 0.581v0c0.116 0.149 0.259 0.234 0.429 0.255v0c2.217 0.448 4.772 0.406 7.667-0.125v0c1.654-0.307 2.581-0.513 2.78-0.618 0.204-0.099 0.37-0.198 0.497-0.298 0.122-0.095 0.214-0.218 0.276-0.368 0.058-0.156 0.041-0.292-0.05-0.409-0.091-0.117-0.286-0.242-0.586-0.375v0c-0.669-0.289-1.737-0.451-3.204-0.485-1.466-0.043-2.918 0.102-4.354 0.437-1.435 0.325-2.546 0.793-3.332 1.405z" fill="#c9a181" data-fill-palette-color="accent"></path><path d="M228.004 73.697v0c-0.321-0.629-0.634-1.153-0.939-1.572v0c-0.126-0.321-0.075-0.539 0.153-0.655v0c0.132-0.067 0.299-0.081 0.5-0.04 0.193 0.038 0.349 0.143 0.468 0.316v0l0.79 1.659c0.171-0.05 0.374-0.111 0.608-0.186 0.234-0.074 0.582-0.176 1.044-0.306 0.462-0.13 0.899-0.206 1.312-0.228 0.418-0.025 0.69 0.086 0.815 0.332 0.125 0.246 0.05 0.439-0.226 0.58v0l-0.143 0.073c-1.021 0.249-1.974 0.505-2.86 0.768v0l0.83 1.627c0.294 0.575 0.429 0.952 0.407 1.13-0.017 0.175-0.091 0.296-0.223 0.363v0c-0.264 0.135-0.515 0.063-0.755-0.215v0c-0.134-0.143-0.324-0.458-0.572-0.943-0.251-0.491-0.499-1.037-0.745-1.637v0c-0.81 0.232-2.352 0.623-4.625 1.171-2.264 0.551-3.69 0.977-4.277 1.277-0.587 0.3-0.94 0.563-1.059 0.789v0c-0.071 0.157-0.048 0.349 0.068 0.577 0.116 0.228 0.285 0.387 0.505 0.479 0.217 0.101 0.438 0.177 0.661 0.229 0.229 0.049 0.442 0.103 0.638 0.162 0.199 0.065 0.338 0.175 0.417 0.331v0c0.153 0.3 0.08 0.526-0.22 0.678v0c-0.156 0.08-0.491 0.058-1.007-0.063-0.516-0.122-0.935-0.263-1.258-0.423-0.323-0.16-0.612-0.488-0.865-0.986-0.251-0.491-0.34-0.873-0.267-1.144v0c0.146-0.558 0.593-1.028 1.342-1.41v0c0.384-0.196 0.859-0.382 1.426-0.558v0l1.391-0.45c0.709-0.18 1.327-0.337 1.856-0.471 0.537-0.131 1.006-0.249 1.405-0.354 0.402-0.1 0.928-0.232 1.576-0.397 0.649-0.165 1.258-0.332 1.829-0.503z" fill="#c9a181" data-fill-palette-color="accent"></path><path d="M227.327 98.174v0c0.085 0.276-0.02 0.46-0.316 0.551v0c-0.341 0.105-0.851-0.192-1.53-0.891-0.688-0.703-1.117-1.331-1.288-1.884-0.17-0.553-0.205-0.996-0.104-1.33 0.095-0.332 0.28-0.635 0.554-0.91v0c0.525-0.535 1.235-0.94 2.129-1.215v0c1.588-0.489 3.156-0.712 4.704-0.668 1.548 0.044 2.904 0.32 4.067 0.828 1.169 0.506 1.896 1.218 2.179 2.138v0c0.15 0.489 0.064 0.938-0.261 1.347-0.318 0.408-0.757 0.698-1.316 0.87v0c-1.035 0.319-1.997 0.316-2.885-0.009-0.886-0.318-1.68-0.803-2.38-1.453-0.707-0.648-1.425-1.427-2.155-2.335v0l-1.761 0.49c-1.363 0.42-1.917 1.044-1.661 1.874v0c0.137 0.444 0.408 0.867 0.813 1.27 0.408 0.409 0.702 0.702 0.883 0.879 0.183 0.183 0.292 0.332 0.328 0.448zM235.762 95.903v0c0.63-0.194 0.863-0.558 0.699-1.091v0c-0.147-0.476-0.745-0.9-1.797-1.274-1.053-0.38-2.345-0.563-3.875-0.549v0c-0.372 0.002-0.648 0.02-0.828 0.055v0c0.271 0.262 0.538 0.535 0.801 0.819 0.257 0.287 0.521 0.561 0.792 0.823v0c0.629 0.602 1.279 1.021 1.95 1.258 0.663 0.232 1.415 0.219 2.258-0.041z" fill="#c9a181" data-fill-palette-color="accent"></path><path d="M21.283 160.063v0c-0.23-0.788-0.798-1.049-1.702-0.785v0c-0.607 0.178-1.189 0.502-1.744 0.973-0.563 0.473-1.006 0.862-1.331 1.168v0c-1.295 1.206-2.342 1.926-3.143 2.16-0.807 0.236-1.562 0.194-2.266-0.126-0.705-0.326-1.247-0.932-1.624-1.817v0l-0.043-0.145c-0.261-0.891 0.093-1.695 1.061-2.413v0c0.035-0.024 0.069-0.041 0.1-0.051v0l0.117-0.034c0.168-0.049 0.319-0.037 0.452 0.036 0.14 0.071 0.237 0.162 0.29 0.273v0l0.037 0.126c0.045 0.155 0.022 0.302-0.071 0.441-0.094 0.133-0.207 0.264-0.337 0.393-0.13 0.129-0.242 0.264-0.334 0.403-0.099 0.141-0.112 0.338-0.038 0.589v0c0.155 0.529 0.447 0.907 0.877 1.131 0.428 0.218 0.846 0.268 1.253 0.149 0.407-0.119 0.768-0.288 1.082-0.506v0c0.548-0.378 1.202-0.937 1.96-1.677v0c1.251-1.235 2.286-1.973 3.106-2.212 0.827-0.242 1.563-0.229 2.208 0.037 0.644 0.26 1.077 0.771 1.301 1.533v0c0.138 0.471 0.159 0.903 0.063 1.296v0c-0.183 0.74-0.504 1.178-0.962 1.312-0.458 0.134-0.743 0.011-0.855-0.37v0c-0.042-0.142-0.024-0.273 0.053-0.394 0.083-0.123 0.171-0.253 0.264-0.393v0c0.256-0.369 0.332-0.735 0.226-1.097z" fill="#ddd8c3" data-fill-palette-color="primary"></path><path d="M27.394 175.829v0c-0.307-0.621-0.608-1.141-0.904-1.557v0c-0.119-0.317-0.063-0.531 0.166-0.645v0c0.133-0.065 0.295-0.078 0.488-0.038 0.192 0.04 0.344 0.149 0.454 0.327v0l0.754 1.643c0.172-0.047 0.375-0.106 0.61-0.178 0.232-0.077 0.574-0.174 1.026-0.292 0.458-0.121 0.893-0.189 1.306-0.205 0.406-0.013 0.669 0.101 0.788 0.342 0.119 0.241 0.043 0.429-0.229 0.563v0l-0.136 0.067c-1.015 0.238-1.958 0.479-2.829 0.721v0l0.8 1.62c0.283 0.573 0.41 0.945 0.382 1.117-0.022 0.168-0.099 0.285-0.232 0.35v0c-0.259 0.128-0.506 0.054-0.739-0.22v0c-0.123-0.142-0.304-0.457-0.546-0.946-0.238-0.483-0.478-1.021-0.718-1.615v0c-0.798 0.221-2.321 0.586-4.568 1.095-2.238 0.512-3.65 0.912-4.236 1.201-0.579 0.286-0.93 0.541-1.051 0.766v0c-0.067 0.153-0.045 0.341 0.065 0.564 0.113 0.229 0.276 0.393 0.489 0.49 0.21 0.091 0.426 0.165 0.649 0.22 0.222 0.055 0.431 0.114 0.626 0.175 0.189 0.064 0.323 0.175 0.4 0.332v0c0.149 0.302 0.075 0.525-0.22 0.671v0c-0.157 0.077-0.489 0.05-0.997-0.082-0.505-0.126-0.915-0.273-1.23-0.44-0.318-0.158-0.598-0.482-0.838-0.97-0.244-0.495-0.326-0.874-0.247-1.139v0c0.15-0.547 0.597-1.003 1.339-1.369v0c0.38-0.188 0.85-0.367 1.41-0.539v0l1.379-0.421c0.699-0.165 1.31-0.309 1.835-0.433 0.53-0.127 0.993-0.238 1.387-0.335 0.404-0.094 0.925-0.216 1.564-0.367 0.636-0.156 1.237-0.314 1.803-0.473z" fill="#ddd8c3" data-fill-palette-color="primary"></path><path d="M39.756 193.5v0c0.92 1.244 0.441 2.56-1.437 3.948v0c-1.466 1.084-3.341 1.842-5.622 2.274v0c-1.525 0.291-2.823 0.238-3.895-0.159v0c-0.546-0.207-0.975-0.522-1.287-0.943v0c-0.548-0.741-0.645-1.489-0.291-2.245 0.355-0.764 0.874-1.399 1.555-1.902v0c1.223-0.904 2.56-1.574 4.011-2.011 1.451-0.437 2.818-0.585 4.1-0.445 1.287 0.145 2.242 0.639 2.866 1.483zM34.544 193.274v0c-1.941 0.339-3.588 1.008-4.941 2.008v0c-0.941 0.696-1.38 1.421-1.315 2.177v0c0.019 0.229 0.104 0.446 0.256 0.651v0c0.308 0.417 1.019 0.615 2.133 0.595 1.109-0.016 2.331-0.242 3.666-0.677 1.326-0.436 2.37-0.936 3.133-1.5 0.768-0.568 1.22-0.969 1.357-1.204 0.138-0.244 0.202-0.451 0.194-0.62-0.003-0.174-0.102-0.393-0.298-0.658-0.196-0.265-0.517-0.479-0.965-0.643v0c-0.847-0.319-1.92-0.363-3.22-0.129z" fill="#ddd8c3" data-fill-palette-color="primary"></path><path d="M43.565 211.892v0c-1.012 1.09-1.121 2.003-0.326 2.74v0c0.394 0.366 0.945 0.519 1.652 0.46v0c0.266-0.029 0.512-0.052 0.74-0.071 0.223-0.013 0.397 0.038 0.52 0.152v0c0.237 0.22 0.257 0.436 0.06 0.648v0c-0.352 0.38-0.956 0.54-1.81 0.481-0.855-0.068-1.59-0.388-2.207-0.96-0.621-0.577-0.879-1.243-0.774-1.999 0.101-0.751 0.419-1.415 0.954-1.992v0c0.993-1.07 2.223-1.994 3.689-2.772 1.461-0.783 2.878-1.261 4.253-1.437 1.374-0.175 2.423 0.074 3.148 0.748v0c0.528 0.49 0.699 1.002 0.514 1.537v0c-0.052 0.135-0.122 0.309-0.209 0.522-0.097 0.213-0.127 0.374-0.089 0.482v0c-0.029 0.12-0.094 0.234-0.195 0.343-0.105 0.113-0.251 0.171-0.436 0.173-0.195 0.002-0.354-0.053-0.477-0.168v0c-0.261-0.243-0.25-0.586 0.033-1.029 0.279-0.448 0.255-0.824-0.071-1.126v0c-0.463-0.43-1.267-0.524-2.409-0.282-1.143 0.242-2.347 0.704-3.612 1.384-1.264 0.69-2.247 1.412-2.948 2.166z" fill="#ddd8c3" data-fill-palette-color="primary"></path><path d="M65.94 229.53v0c0.37 0.233 0.41 0.58 0.12 1.041v0c-0.176 0.279-0.464 0.479-0.866 0.6v0c-0.793 0.225-1.431 0.185-1.915-0.12v0c-0.814-0.512-1.372-1.224-1.673-2.137-0.3-0.912-0.42-1.854-0.358-2.824 0.066-0.976 0.21-1.743 0.435-2.302v0l-0.068-0.006c-0.271 0.33-0.863 0.936-1.774 1.816-0.912 0.881-1.452 1.411-1.621 1.592v0c-0.3 0.312-0.581 0.386-0.842 0.221v0c-0.211-0.133-0.338-0.264-0.383-0.396-0.045-0.131-0.051-0.223-0.019-0.274v0l0.054-0.085c0.251-0.399 1.54-1.741 3.869-4.029 2.334-2.283 3.803-3.728 4.406-4.333v0c2.934-2.908 5.073-5.115 6.418-6.622 1.345-1.507 2.098-2.312 2.26-2.417 0.171-0.107 0.305-0.13 0.401-0.07v0c0.456 0.287 0.535 0.666 0.238 1.139v0c-0.104 0.165-0.481 0.588-1.131 1.268-0.656 0.676-1.272 1.314-1.848 1.913-0.576 0.6-1.493 1.54-2.753 2.823-1.263 1.288-2.098 2.142-2.505 2.561v0c0.964-0.244 1.731-0.187 2.301 0.172 0.564 0.355 0.829 0.792 0.796 1.311-0.036 0.525-0.194 1.01-0.474 1.455v0c-0.527 0.837-1.28 1.385-2.26 1.642-0.981 0.258-2.293 0.374-3.939 0.348v0c-0.476 1.187-0.613 2.396-0.41 3.628 0.193 1.234 0.663 2.086 1.409 2.556v0c0.347 0.218 0.706 0.217 1.075-0.004v0c0.169-0.092 0.351-0.217 0.544-0.373 0.194-0.156 0.365-0.188 0.513-0.094zM67.834 219.884v0c-0.541-0.34-1.158-0.395-1.852-0.164-0.692 0.24-1.437 0.793-2.235 1.659v0c-0.16 0.178-0.427 0.458-0.804 0.841v0l-0.612 0.652c0.101-0.008 0.281-0.01 0.54-0.006 0.26 0.004 0.701-0.008 1.323-0.038 0.625-0.02 1.3-0.14 2.026-0.359 0.726-0.219 1.282-0.636 1.669-1.251 0.39-0.621 0.372-1.065-0.055-1.334z" fill="#ddd8c3" data-fill-palette-color="primary"></path><path d="M101.523 241.943v0c-0.26 1.464 0.143 2.291 1.21 2.48v0c0.53 0.094 1.076-0.075 1.638-0.508v0c0.207-0.168 0.402-0.322 0.584-0.46 0.181-0.132 0.354-0.183 0.519-0.154v0c0.318 0.056 0.452 0.227 0.402 0.512v0c-0.091 0.51-0.511 0.972-1.261 1.385-0.755 0.406-1.547 0.535-2.375 0.388-0.835-0.148-1.413-0.568-1.734-1.261-0.322-0.686-0.415-1.416-0.277-2.191v0c0.255-1.437 0.788-2.88 1.598-4.329 0.804-1.449 1.736-2.62 2.797-3.511 1.06-0.891 2.077-1.251 3.05-1.078v0c0.709 0.126 1.131 0.464 1.266 1.014v0c0.029 0.142 0.065 0.326 0.107 0.552 0.034 0.232 0.096 0.383 0.186 0.453v0c0.041 0.117 0.048 0.248 0.022 0.394-0.027 0.152-0.118 0.28-0.273 0.382-0.163 0.108-0.327 0.147-0.492 0.118v0c-0.351-0.062-0.528-0.357-0.53-0.884-0.009-0.528-0.232-0.83-0.669-0.908v0c-0.623-0.111-1.349 0.246-2.178 1.069-0.829 0.823-1.591 1.863-2.286 3.12-0.689 1.265-1.124 2.404-1.304 3.417z" fill="#c9a181" data-fill-palette-color="accent"></path><path d="M121.867 247.2v0c-0.955 0.01-1.439-0.583-1.452-1.781-0.013-1.204 0.419-2.682 1.295-4.434 0.876-1.752 1.913-3.27 3.11-4.555 1.191-1.284 2.169-1.931 2.936-1.939 0.76-0.008 1.198 0.324 1.313 0.996v0c0.036 0.201 0.062 0.416 0.078 0.645v0c0.073-0.048 0.164-0.072 0.271-0.074v0c0.383-0.004 0.577 0.179 0.581 0.549v0l0.001 0.091c0 0.027-0.097 0.398-0.291 1.113-0.201 0.709-0.424 1.895-0.668 3.56-0.238 1.658-0.351 3.075-0.338 4.252v0c0.068 0.046 0.152 0.099 0.254 0.159 0.102 0.059 0.224 0.152 0.366 0.279 0.149 0.126 0.225 0.273 0.227 0.441 0.002 0.175-0.047 0.33-0.146 0.466-0.106 0.136-0.257 0.205-0.452 0.207v0c-0.404 0.004-0.769-0.197-1.097-0.604-0.327-0.407-0.493-0.846-0.498-1.317v0c-0.011-1.023 0.249-2.781 0.781-5.276v0c-0.677 1.461-1.561 2.869-2.649 4.226-1.089 1.364-1.844 2.203-2.264 2.517-0.414 0.314-0.866 0.473-1.358 0.479zM121.667 245.446v0c0.003 0.303 0.129 0.453 0.378 0.45v0c0.182-0.002 0.332-0.064 0.452-0.186v0c1.68-1.471 3.175-3.499 4.487-6.083v0c0.744-1.481 1.136-2.33 1.174-2.546 0.045-0.223 0.066-0.411 0.064-0.566-0.002-0.155-0.044-0.302-0.126-0.443-0.082-0.14-0.197-0.21-0.345-0.208-0.148 0.002-0.366 0.081-0.653 0.239v0c-0.622 0.35-1.388 1.091-2.298 2.225-0.903 1.127-1.654 2.349-2.252 3.667-0.598 1.325-0.892 2.475-0.881 3.451z" fill="#c9a181" data-fill-palette-color="accent"></path><path d="M148.283 243.105v0c0.356-0.07 0.571 0.08 0.643 0.45 0.071 0.363-0.111 0.69-0.547 0.982-0.436 0.292-0.961 0.498-1.575 0.618-0.614 0.121-1.098 0.048-1.452-0.218-0.349-0.274-0.57-0.649-0.664-1.125-0.092-0.469-0.151-0.906-0.176-1.312-0.032-0.405-0.051-0.974-0.058-1.707-0.013-0.731-0.021-1.556-0.023-2.474-0.008-0.91-0.005-1.891 0.007-2.943 0.006-1.05 0.015-2.122 0.026-3.214 0.011-1.092 0.024-2.178 0.038-3.257 0.022-1.074 0.04-2.099 0.054-3.076 0.015-0.97 0.032-1.861 0.05-2.673 0.011-0.818 0.019-1.505 0.026-2.062v0c0.022-0.272 0.182-0.437 0.479-0.496v0c0.343-0.068 0.552 0.087 0.626 0.464v0l0.062 0.316c-0.016 1.56-0.036 3.079-0.06 4.558-0.026 1.472-0.06 4.033-0.104 7.683-0.045 3.643-0.055 6.103-0.029 7.38 0.032 1.276 0.072 2.039 0.121 2.29 0.048 0.244 0.167 0.447 0.356 0.609 0.191 0.168 0.388 0.232 0.593 0.192 0.205-0.04 0.386-0.114 0.543-0.22 0.152-0.098 0.303-0.204 0.453-0.315 0.144-0.104 0.272-0.201 0.384-0.292 0.118-0.099 0.193-0.151 0.227-0.158z" fill="#c9a181" data-fill-palette-color="accent"></path><path d="M163.126 237.104v0c0.531 1.389 1.303 1.89 2.314 1.502v0c0.503-0.192 0.883-0.619 1.142-1.279v0c0.091-0.251 0.179-0.483 0.264-0.695 0.087-0.206 0.209-0.339 0.366-0.4v0c0.302-0.115 0.504-0.038 0.607 0.233v0c0.185 0.484 0.063 1.096-0.367 1.836-0.438 0.737-1.05 1.255-1.836 1.556-0.792 0.303-1.504 0.24-2.135-0.188-0.63-0.422-1.085-1-1.367-1.735v0c-0.522-1.364-0.808-2.875-0.859-4.534-0.057-1.656 0.139-3.14 0.589-4.45 0.45-1.31 1.136-2.142 2.06-2.495v0c0.672-0.257 1.208-0.185 1.606 0.218v0c0.098 0.106 0.224 0.246 0.376 0.418 0.148 0.181 0.279 0.278 0.393 0.292v0c0.095 0.079 0.169 0.187 0.222 0.326 0.055 0.145 0.043 0.301-0.037 0.468-0.084 0.176-0.204 0.294-0.361 0.354v0c-0.333 0.127-0.636-0.034-0.909-0.484-0.279-0.448-0.626-0.592-1.042-0.434v0c-0.591 0.226-1.03 0.905-1.316 2.038-0.287 1.133-0.405 2.417-0.353 3.852 0.061 1.439 0.275 2.639 0.643 3.601z" fill="#c9a181" data-fill-palette-color="accent"></path><path d="M188.252 228.79v0c-0.425 0.26-0.986-0.182-1.685-1.324v0c-0.449-0.735-0.839-1.533-1.169-2.396-0.33-0.863-0.645-1.707-0.946-2.533v0c0.022 0.617 0.066 1.237 0.132 1.86 0.065 0.623 0.103 1.136 0.113 1.539 0.01 0.404 0.022 0.739 0.036 1.007v0c0.15 2.258-0.159 3.622-0.928 4.093-0.769 0.47-1.619-0.055-2.549-1.577v0c-1.197-1.957-2.245-4.368-3.144-7.232v0l-0.471-1.486c-0.159-0.557-0.081-0.932 0.234-1.126v0c0.178-0.109 0.374-0.059 0.588 0.149v0c0.12 0.234 0.191 0.474 0.216 0.72 0.02 0.24 0.081 0.487 0.181 0.741v0c1.277 3.469 2.262 5.769 2.953 6.901v0l0.593 1.009c0.351 0.574 0.618 0.805 0.802 0.692v0c0.545-0.333 0.685-2.181 0.42-5.543v0c-0.038-0.513-0.091-1.155-0.16-1.925-0.069-0.77-0.115-1.361-0.138-1.773-0.023-0.412-0.053-0.803-0.091-1.175v0c-0.192-1.539-0.087-2.431 0.315-2.676v0c0.241-0.147 0.444-0.086 0.609 0.183 0.165 0.27 0.299 0.791 0.401 1.565 0.1 0.783 0.26 1.548 0.481 2.296v0c0.596 2.096 1.43 4.157 2.503 6.182v0l0.068 0.112c0.126 0.207 0.264 0.335 0.413 0.386 0.149 0.051 0.261 0.085 0.335 0.103 0.065 0.016 0.141 0.095 0.229 0.239 0.088 0.143 0.085 0.326-0.008 0.549-0.091 0.213-0.202 0.36-0.333 0.44z" fill="#c9a181" data-fill-palette-color="accent"></path><path d="M203.337 214.453v0c0.271-0.242 0.532-0.223 0.783 0.058 0.247 0.276 0.257 0.65 0.031 1.123-0.226 0.473-0.573 0.919-1.039 1.336-0.466 0.417-0.92 0.602-1.361 0.554-0.44-0.058-0.821-0.267-1.144-0.629-0.319-0.356-0.592-0.702-0.821-1.039-0.234-0.332-0.541-0.811-0.921-1.437-0.385-0.622-0.812-1.327-1.283-2.116-0.471-0.779-0.97-1.624-1.496-2.534-0.531-0.906-1.07-1.832-1.618-2.777-0.548-0.945-1.091-1.885-1.63-2.821-0.529-0.935-1.037-1.825-1.524-2.672-0.482-0.842-0.923-1.616-1.321-2.325-0.408-0.709-0.752-1.304-1.03-1.786v0c-0.12-0.245-0.067-0.468 0.159-0.671v0c0.261-0.233 0.519-0.207 0.774 0.079v0l0.216 0.241c0.783 1.349 1.541 2.666 2.274 3.95 0.729 1.279 2.007 3.499 3.832 6.659 1.821 3.155 3.068 5.276 3.742 6.362 0.678 1.081 1.103 1.717 1.273 1.907 0.166 0.186 0.372 0.299 0.617 0.342 0.25 0.047 0.453 0.001 0.608-0.138 0.155-0.139 0.274-0.294 0.355-0.466 0.08-0.162 0.156-0.33 0.228-0.502 0.071-0.163 0.132-0.312 0.182-0.447 0.051-0.145 0.089-0.229 0.114-0.251z" fill="#c9a181" data-fill-palette-color="accent"></path><path d="M215.442 203.741v0c-0.587 0.754-1.353 0.763-2.297 0.028-0.95-0.74-1.839-1.997-2.665-3.774-0.826-1.776-1.369-3.533-1.628-5.269-0.264-1.731-0.161-2.9 0.31-3.505 0.467-0.6 0.999-0.736 1.596-0.408v0c0.18 0.097 0.364 0.211 0.553 0.341v0c0.008-0.087 0.045-0.173 0.112-0.258v0c0.235-0.303 0.499-0.34 0.791-0.113v0l0.072 0.055c0.021 0.017 0.251 0.323 0.69 0.921 0.429 0.598 1.219 1.511 2.37 2.739 1.149 1.218 2.188 2.189 3.117 2.912v0c0.078-0.024 0.173-0.058 0.283-0.1 0.11-0.042 0.258-0.08 0.446-0.113 0.192-0.038 0.354-0.006 0.487 0.097 0.138 0.107 0.229 0.242 0.273 0.405 0.04 0.168 0 0.328-0.12 0.482v0c-0.248 0.319-0.633 0.479-1.155 0.482-0.522 0.003-0.969-0.14-1.341-0.429v0c-0.807-0.628-2.021-1.927-3.643-3.896v0c0.721 1.439 1.274 3.007 1.659 4.704 0.39 1.701 0.577 2.814 0.56 3.339-0.012 0.519-0.169 0.973-0.47 1.36zM213.945 202.806v0c0.239 0.186 0.435 0.181 0.588-0.016v0c0.112-0.143 0.157-0.3 0.135-0.47v0c-0.106-2.23-0.762-4.663-1.968-7.298v0c-0.696-1.505-1.117-2.339-1.262-2.503-0.146-0.173-0.281-0.308-0.402-0.403-0.122-0.095-0.264-0.154-0.425-0.177-0.161-0.023-0.287 0.024-0.378 0.141-0.091 0.117-0.164 0.337-0.22 0.66v0c-0.113 0.705-0.01 1.765 0.311 3.183 0.32 1.408 0.809 2.756 1.469 4.045 0.665 1.293 1.382 2.239 2.152 2.838z" fill="#c9a181" data-fill-palette-color="accent"></path><path d="M219.095 177.238v0c-0.315 0.617-0.551 1.169-0.708 1.656v0c-0.183 0.284-0.388 0.369-0.616 0.252v0c-0.132-0.067-0.239-0.19-0.322-0.368-0.083-0.178-0.086-0.365-0.009-0.56v0l0.865-1.586c-0.141-0.109-0.31-0.237-0.507-0.383-0.2-0.14-0.483-0.356-0.848-0.648-0.371-0.295-0.686-0.603-0.945-0.924-0.253-0.318-0.319-0.597-0.196-0.836 0.122-0.24 0.318-0.291 0.588-0.153v0l0.135 0.068c0.798 0.671 1.554 1.284 2.269 1.837v0l0.821-1.609c0.29-0.569 0.513-0.894 0.666-0.974 0.148-0.083 0.288-0.091 0.42-0.024v0c0.258 0.131 0.346 0.373 0.265 0.724v0c-0.041 0.183-0.185 0.518-0.432 1.003-0.244 0.479-0.533 0.993-0.865 1.541v0c0.655 0.508 1.858 1.51 3.609 3.008 1.748 1.488 2.913 2.38 3.495 2.677 0.575 0.293 0.99 0.422 1.242 0.384v0c0.163-0.038 0.301-0.168 0.414-0.389 0.116-0.228 0.15-0.456 0.1-0.685-0.052-0.223-0.123-0.44-0.211-0.652-0.089-0.211-0.167-0.414-0.235-0.607-0.062-0.19-0.053-0.363 0.027-0.518v0c0.153-0.3 0.376-0.375 0.67-0.225v0c0.156 0.079 0.333 0.362 0.53 0.848 0.201 0.48 0.328 0.896 0.383 1.248 0.063 0.35-0.029 0.767-0.276 1.253-0.251 0.491-0.506 0.784-0.765 0.879v0c-0.528 0.206-1.161 0.122-1.898-0.255v0c-0.378-0.193-0.803-0.462-1.276-0.809v0l-1.162-0.853c-0.55-0.462-1.031-0.866-1.444-1.212-0.418-0.349-0.785-0.653-1.098-0.911-0.317-0.267-0.726-0.612-1.229-1.034-0.505-0.416-0.991-0.804-1.457-1.163z" fill="#c9a181" data-fill-palette-color="accent"></path><path d="M236.003 159.996v0c0.083-0.27 0.269-0.361 0.558-0.272v0c0.334 0.103 0.588 0.628 0.762 1.575 0.165 0.952 0.164 1.701-0.004 2.247-0.168 0.547-0.384 0.927-0.647 1.142-0.265 0.221-0.581 0.367-0.947 0.438v0c-0.727 0.143-1.534 0.078-2.421-0.195v0c-1.556-0.478-2.955-1.161-4.195-2.05-1.238-0.894-2.19-1.873-2.856-2.936-0.674-1.059-0.872-2.042-0.593-2.949v0c0.148-0.482 0.467-0.799 0.957-0.951 0.484-0.154 0.999-0.147 1.546 0.021v0c1.022 0.314 1.809 0.848 2.358 1.601 0.543 0.751 0.921 1.585 1.132 2.501 0.215 0.925 0.37 1.958 0.462 3.099v0l1.702 0.576c1.344 0.413 2.142 0.211 2.393-0.606v0c0.134-0.437 0.149-0.932 0.045-1.485-0.109-0.561-0.186-0.965-0.23-1.211-0.051-0.248-0.058-0.43-0.022-0.545zM227.873 157.18v0c-0.624-0.192-1.016-0.027-1.176 0.494v0c-0.144 0.469 0.108 1.149 0.757 2.038 0.647 0.896 1.598 1.762 2.854 2.598v0c0.303 0.206 0.539 0.342 0.709 0.408v0c-0.079-0.362-0.145-0.731-0.198-1.106-0.054-0.375-0.119-0.747-0.196-1.116v0c-0.179-0.836-0.475-1.536-0.886-2.099-0.413-0.556-1.035-0.962-1.864-1.217z" fill="#c9a181" data-fill-palette-color="accent"></path><path d="M1.948 127.765c0-5.186 4.204-9.391 9.391-9.39 5.186 0 9.391 4.204 9.391 9.39 0 5.186-4.204 9.391-9.391 9.391-5.186 0-9.391-4.204-9.391-9.391z" fill="#ddd8c3" data-fill-palette-color="primary"></path><path d="M226.47 127.765c0-5.186 4.204-9.391 9.391-9.39 5.186 0 9.391 4.204 9.391 9.39 0 5.186-4.204 9.391-9.391 9.391-5.186 0-9.391-4.204-9.391-9.391z" fill="#ddd8c3" data-fill-palette-color="primary"></path></g><g id="text-1"></g></svg></g></svg></g></svg></g></svg></g></svg></g><defs></defs></svg><rect width="247.2" height="247.2" fill="none" stroke="none" visibility="hidden"></rect></g></svg></g></svg>